<?xml version="1.0" standalone="no"?>
<!DOCTYPE svg PUBLIC "-//W3C//DTD SVG 20010904//EN"
 "http://www.w3.org/TR/2001/REC-SVG-20010904/DTD/svg10.dtd">
<svg version="1.0" xmlns="http://www.w3.org/2000/svg"
 width="1200.000000pt" height="1200.000000pt" viewBox="0 0 1200.000000 1200.000000"
 preserveAspectRatio="xMidYMid meet">

<g transform="translate(0.000000,1200.000000) scale(0.100000,-0.100000)"
fill="#000000" stroke="none">
<path d="M4023 11823 c15 -439 118 -871 295 -1248 140 -296 285 -520 527 -812
107 -129 458 -483 642 -647 l132 -117 -152 -136 c-900 -807 -1300 -1485 -1424
-2415 -25 -190 -25 -706 0 -896 93 -697 325 -1212 806 -1792 115 -138 422
-448 619 -624 78 -70 142 -131 142 -136 0 -4 -57 -58 -127 -121 -179 -158
-532 -513 -638 -642 -242 -292 -408 -549 -533 -823 -176 -387 -274 -805 -289
-1236 l-6 -178 105 0 c88 0 107 3 112 16 3 9 4 19 2 22 -2 4 0 93 5 197 18
389 93 706 249 1049 33 72 60 139 60 148 0 9 7 18 15 21 8 4 24 25 35 48 12
23 49 85 83 138 216 338 512 671 962 1081 39 35 90 82 115 104 25 23 169 152
320 286 372 330 516 466 693 655 233 248 400 462 536 690 57 94 71 126 67 147
-4 20 -2 26 9 22 19 -7 35 20 95 161 120 281 192 565 218 860 11 117 8 657 -3
763 l-8 72 -793 0 c-783 0 -793 0 -804 -20 -11 -20 -21 -20 -882 -20 l-871 0
23 -25 c13 -14 30 -25 37 -25 9 0 12 -7 9 -18 -13 -39 -25 -365 -20 -497 6
-134 6 -141 -15 -159 -11 -11 -21 -23 -21 -28 0 -4 389 -8 864 -8 864 0 865 0
879 -21 14 -19 24 -20 138 -19 309 4 1432 -1 1427 -6 -3 -3 -291 -7 -639 -8
-349 -2 -696 -4 -773 -4 -110 -1 -142 -4 -155 -16 -15 -14 -119 -16 -880 -17
-660 0 -861 -3 -858 -12 2 -7 17 -21 34 -32 32 -20 36 -32 49 -130 18 -149
167 -629 181 -587 5 14 59 16 68 2 3 -5 17 -10 30 -10 13 0 27 5 30 10 3 6 24
10 46 10 21 0 39 -4 39 -10 0 -13 37 -13 45 0 8 13 65 13 65 0 0 -7 196 -10
569 -10 566 0 570 0 584 -21 15 -21 15 -21 554 -14 296 4 545 7 553 7 8 0 42
-2 75 -5 33 -3 80 -6 104 -6 24 -1 42 -3 39 -6 -3 -3 -301 -5 -661 -5 -646 0
-656 0 -667 -20 -10 -19 -23 -20 -598 -24 -323 -3 -634 -8 -692 -11 -72 -5
-117 -3 -143 6 -20 7 -40 9 -43 6 -10 -9 16 -38 43 -48 13 -5 35 -33 54 -70
77 -153 209 -351 360 -539 87 -109 104 -126 114 -110 4 7 150 10 446 10 427 0
440 -1 456 -20 17 -19 30 -20 400 -20 249 0 383 -4 383 -10 0 -6 -135 -10
-385 -10 -374 0 -385 -1 -395 -20 -10 -20 -21 -20 -450 -20 -269 0 -440 -4
-440 -9 0 -14 42 -41 63 -41 11 0 81 -60 161 -137 137 -134 304 -288 416 -386
l55 -48 -68 -63 c-111 -103 -99 -103 -219 0 -166 144 -585 568 -699 709 -441
544 -648 1021 -739 1710 -18 133 -24 528 -11 671 39 427 129 772 287 1113 24
52 44 102 44 112 0 11 6 19 13 19 6 0 28 30 47 67 51 98 209 331 315 463 215
270 475 529 945 941 487 427 579 510 731 658 131 126 173 161 193 161 34 0 86
27 86 44 0 11 -65 14 -357 14 -305 1 -358 3 -361 16 -5 21 -69 24 -482 20
-201 -1 -394 1 -430 5 -40 5 123 9 423 10 480 1 487 1 487 21 0 20 7 20 368
20 l368 0 30 33 c71 75 199 245 288 382 55 83 156 263 156 275 0 6 14 16 30
22 17 5 35 19 41 30 10 19 8 20 -43 18 -29 -1 -318 -2 -641 -1 -580 1 -589 1
-594 21 -5 20 -14 20 -594 20 -381 0 -590 -4 -594 -10 -3 -5 -22 -10 -41 -10
-19 0 -34 5 -34 10 0 6 -27 10 -60 10 -33 0 -60 -4 -60 -10 0 -5 -15 -10 -34
-10 -19 0 -38 5 -41 10 -3 6 -19 10 -36 10 -16 0 -29 5 -29 10 0 6 11 10 25
10 14 0 25 5 25 10 0 14 43 12 59 -2 11 -10 14 -10 18 0 5 14 73 17 73 2 0 -5
20 -10 44 -10 25 0 48 5 51 10 3 6 17 10 31 10 13 0 24 -4 24 -10 0 -7 202
-10 585 -10 578 0 585 0 585 20 0 20 7 20 538 21 295 0 585 0 644 -1 l107 -2
16 39 c60 140 148 459 169 613 5 37 13 49 41 68 19 12 35 27 35 32 0 7 -206
10 -612 10 -1042 -1 -938 -3 -938 20 0 20 -7 20 -881 20 -584 0 -878 3 -874
10 4 7 308 10 881 10 747 0 874 2 874 14 0 19 81 21 892 21 362 0 658 2 658 4
0 3 -10 15 -22 28 -23 25 -25 61 -12 221 l6 72 -65 0 -65 0 -7 -117 c-3 -65
-7 -127 -8 -138 -2 -20 -10 -20 -417 -22 -228 -2 -892 1 -1475 5 l-1060 7 -2
50 c-2 28 -5 87 -9 133 l-6 82 -110 0 -111 0 7 -182 c3 -101 16 -246 27 -323
41 -287 160 -677 213 -701 16 -7 21 -18 21 -49 1 -46 48 -145 96 -199 17 -20
28 -40 24 -46 -8 -13 114 -204 220 -345 192 -255 445 -519 882 -917 47 -44 50
-48 34 -62 -25 -22 -28 -21 -80 26 -539 488 -830 813 -1065 1188 -43 69 -91
139 -106 155 -51 57 -71 94 -77 147 -4 29 -17 78 -31 108 -13 30 -41 105 -62
165 -100 291 -141 528 -154 900 -3 72 -5 131 -5 133 -1 1 -49 2 -108 2 l-106
0 6 -177z m3422 -340 c-21 -148 -104 -447 -159 -575 l-16 -38 -1269 0 -1269 0
-20 48 c-28 66 -87 251 -111 347 -19 77 -51 238 -51 256 0 5 611 9 1451 9
l1451 0 -7 -47z m-275 -820 c0 -10 -70 -133 -128 -223 -64 -100 -209 -291
-282 -372 l-52 -58 -708 0 -709 0 -74 88 c-115 135 -229 294 -311 432 -42 70
-76 130 -76 133 0 4 527 7 1170 7 644 0 1170 -3 1170 -7z m-652 -853 c-4 -12
-252 -246 -401 -378 l-117 -104 -137 123 c-76 68 -191 175 -256 239 l-119 115
284 5 c542 10 750 10 746 0z m941 -3426 c20 -18 34 -625 14 -645 -5 -5 -579
-8 -1479 -7 l-1469 3 -7 125 c-8 148 7 491 23 521 l11 21 1451 -7 c799 -4
1454 -9 1456 -11z m-17 -894 c-6 -100 -76 -368 -139 -530 l-28 -75 -705 -6
c-388 -3 -960 -7 -1272 -8 -554 -1 -568 -1 -578 19 -49 91 -170 537 -170 628
l0 22 1448 -2 1447 -3 -3 -45z m-272 -822 c0 -6 -34 -68 -76 -138 -80 -135
-194 -294 -307 -427 l-69 -83 -718 0 -718 0 -54 63 c-128 147 -284 370 -372
530 l-38 67 1176 0 c880 0 1176 -3 1176 -12z m-2760 -43 c9 -11 10 -19 3 -26
-6 -6 -13 -1 -21 16 -13 28 -2 34 18 10z m130 -257 c0 -19 -20 -6 -34 24 l-16
32 25 -24 c14 -13 25 -27 25 -32z m1850 -681 c-74 -73 -193 -183 -264 -245
l-128 -114 -32 29 c-17 16 -96 88 -176 161 -80 72 -185 169 -235 216 l-90 85
530 0 530 0 -135 -132z"/>
<path d="M7850 11906 c0 -174 -45 -530 -90 -706 -59 -235 -120 -410 -205 -587
-25 -51 -42 -100 -39 -108 4 -9 1 -15 -8 -15 -8 0 -31 -33 -53 -72 -199 -372
-582 -811 -1115 -1278 -52 -46 -216 -190 -365 -320 -148 -130 -336 -298 -417
-374 l-148 -137 -122 -1 c-125 -1 -170 -12 -181 -43 -6 -13 47 -15 483 -15
l489 0 12 -21 c11 -22 14 -22 253 -17 132 2 277 1 321 -2 46 -4 -57 -7 -242
-8 -311 -2 -323 -3 -333 -22 -10 -20 -21 -20 -495 -20 -267 0 -485 -4 -485 -8
0 -17 38 -43 72 -48 l34 -6 -33 -34 c-100 -107 -275 -342 -380 -513 -29 -46
-58 -88 -65 -93 -7 -4 -36 -8 -65 -8 -41 0 -58 -5 -80 -25 l-28 -24 25 -2 c14
-1 352 -3 751 -3 684 -1 728 -2 747 -19 18 -17 50 -18 543 -13 288 3 538 5
554 6 17 1 59 0 95 -2 36 -1 77 1 92 5 l28 7 -27 55 c-21 42 -29 51 -36 40 -4
-8 -5 -20 -2 -25 3 -5 0 -7 -9 -4 -21 8 -39 60 -33 93 5 23 -6 46 -60 127
-196 296 -467 602 -816 922 -89 81 -180 164 -202 184 l-40 37 20 20 20 20 125
-111 c395 -353 743 -737 930 -1027 51 -79 69 -99 84 -96 26 5 47 -24 34 -48
-14 -27 70 -190 95 -183 23 6 43 -30 27 -49 -10 -12 -2 -38 35 -126 181 -430
243 -847 214 -1450 -18 -394 -101 -732 -262 -1071 -30 -64 -52 -120 -49 -123
4 -4 -1 -11 -11 -16 -9 -6 -28 -32 -42 -59 -75 -149 -273 -421 -468 -645 -89
-102 -455 -467 -568 -565 -282 -248 -726 -645 -797 -714 -46 -45 -116 -112
-156 -151 -108 -103 -306 -315 -401 -430 -168 -204 -368 -503 -381 -572 -4
-18 -10 -33 -15 -33 -18 0 -128 -244 -174 -386 -49 -150 -115 -429 -115 -486
0 -4 401 -8 890 -8 880 0 890 1 890 20 0 20 9 20 780 20 773 0 781 0 770 20
-6 10 -27 24 -48 29 -37 10 -37 11 -56 93 -49 219 -149 513 -172 504 -7 -3
-26 9 -41 27 -52 59 -86 77 -146 77 -40 0 -61 -5 -78 -20 l-24 -19 66 -1 66 0
26 -57 c41 -93 83 -202 112 -293 25 -82 75 -279 75 -300 0 -7 -476 -10 -1430
-10 -786 0 -1430 3 -1430 8 0 4 11 54 25 112 34 141 76 270 137 418 l50 122
1129 0 1129 0 0 21 0 21 -470 -4 -470 -3 0 27 0 28 -737 0 c-496 -1 -740 3
-747 10 -6 6 -6 10 -1 10 6 0 342 0 749 0 l738 0 -4 25 -5 25 201 1 c310 1
885 6 939 7 33 2 47 6 47 16 0 8 -7 16 -15 19 -8 4 -24 25 -35 48 -56 109
-236 359 -374 519 -61 71 -64 75 -43 84 79 31 77 31 -324 34 l-396 2 5 30 4
30 -421 0 c-231 0 -421 4 -421 8 0 5 189 8 421 8 l421 -1 -4 27 -5 28 395 0
c333 0 393 2 383 14 -8 10 -49 15 -147 18 l-135 5 -72 70 c-74 72 -274 255
-361 331 l-49 43 34 35 c19 19 58 54 87 76 47 37 55 40 76 29 56 -30 536 -496
699 -679 112 -125 256 -314 343 -450 43 -68 64 -92 76 -88 24 6 55 -31 40 -46
-18 -18 -15 -33 3 -18 19 16 16 19 70 -76 51 -89 57 -110 19 -65 -14 18 -35
36 -45 42 -18 9 -18 7 3 -36 12 -25 28 -45 35 -45 12 0 17 -15 16 -47 -1 -7 3
-13 8 -13 5 0 9 15 9 33 l1 32 23 -45 c21 -40 23 -48 11 -75 -11 -27 -9 -39
17 -105 43 -112 104 -304 127 -402 49 -208 91 -541 91 -714 l0 -94 67 0 66 0
-6 168 c-16 458 -124 903 -316 1298 -235 485 -552 878 -1129 1397 -78 71 -142
132 -142 137 0 4 57 59 127 121 597 532 962 994 1184 1495 192 434 279 866
279 1384 0 516 -87 948 -277 1378 -222 504 -577 955 -1185 1500 l-137 123 142
126 c182 162 484 465 611 613 219 255 366 474 504 750 210 419 322 863 339
1343 l6 167 -66 0 -67 0 0 -94z m-1656 -3409 c104 -95 191 -178 194 -184 3
-10 -80 -13 -394 -13 l-397 0 24 26 c32 35 373 344 379 343 3 0 90 -77 194
-172z m458 -445 c88 -96 200 -231 280 -338 84 -114 173 -252 166 -259 -3 -3
-500 -4 -1106 -3 l-1101 3 94 140 c108 161 210 291 331 423 l85 92 599 0 598
0 54 -58z m-447 -5564 c77 -69 153 -140 169 -157 l30 -31 -397 0 c-218 0 -397
4 -397 9 0 9 149 148 303 285 l89 78 31 -29 c18 -16 95 -86 172 -155z m446
-435 c131 -135 294 -341 399 -505 l59 -93 -1101 -3 c-606 -1 -1103 0 -1106 3
-7 7 85 150 179 276 88 118 192 243 278 332 l45 47 596 0 596 0 55 -57z"/>
<path d="M6089 7320 c-14 -20 -25 -20 -766 -20 -496 -1 -753 -4 -753 -11 0 -5
16 -19 35 -30 l35 -21 -19 -36 c-52 -103 -151 -421 -175 -564 -6 -33 -11 -39
-46 -48 -22 -6 -44 -20 -50 -30 -11 -20 -3 -20 857 -20 860 0 868 0 882 -20
13 -20 22 -20 802 -20 434 0 789 3 789 8 0 4 -7 45 -14 92 -32 190 -104 427
-194 634 -29 68 -31 70 -83 87 -61 20 -93 24 -84 9 4 -6 -40 -9 -115 -9 -70 0
-120 4 -120 9 0 6 -182 10 -484 10 -473 0 -484 0 -497 -20z m1179 -192 c61
-148 103 -277 137 -418 14 -58 25 -108 25 -112 0 -5 -643 -8 -1430 -8 -908 0
-1430 4 -1430 10 0 16 40 182 64 265 25 85 80 232 123 328 l26 57 1217 0 1218
0 50 -122z"/>
<path d="M7339 1431 c9 -16 21 -21 48 -21 33 0 36 2 23 15 -9 8 -30 18 -49 21
-32 7 -33 6 -22 -15z"/>
<path d="M7367 1281 c-18 -6 -18 -8 -2 -21 14 -11 19 -10 38 8 21 21 21 22 2
21 -11 0 -28 -4 -38 -8z"/>
<path d="M4315 475 c-8 -26 -17 -152 -21 -306 l-5 -169 111 0 c60 0 110 3 110
8 0 40 21 333 26 353 l5 26 1451 8 c1218 6 1452 5 1463 -6 12 -12 35 -259 35
-366 0 -22 4 -23 65 -23 36 0 65 3 65 8 -1 53 -22 351 -26 365 -3 10 0 17 9
17 14 0 57 40 57 53 0 4 -351 7 -780 7 -687 0 -780 2 -780 15 0 19 54 18 -969
19 -535 1 -815 -2 -816 -9z"/>
</g>
</svg>
