<?xml version="1.0" standalone="no"?>
<!DOCTYPE svg PUBLIC "-//W3C//DTD SVG 20010904//EN"
 "http://www.w3.org/TR/2001/REC-SVG-20010904/DTD/svg10.dtd">
<svg version="1.0" xmlns="http://www.w3.org/2000/svg"
 width="1280.000000pt" height="1156.000000pt" viewBox="0 0 1280.000000 1156.000000"
 preserveAspectRatio="xMidYMid meet">

<g transform="translate(0.000000,1156.000000) scale(0.100000,-0.100000)"
fill="#000000" stroke="none">
<path d="M5965 11554 c-255 -15 -483 -46 -695 -94 -1435 -323 -2561 -1449
-2890 -2888 -64 -281 -93 -543 -93 -852 0 -589 122 -1131 372 -1655 412 -862
1152 -1555 2031 -1904 194 -77 221 -84 300 -79 77 4 109 21 148 78 22 33 22
35 22 422 l0 388 -22 -5 c-152 -35 -482 -45 -637 -20 -293 48 -504 193 -603
415 -90 203 -195 379 -294 496 -26 30 -86 80 -133 111 -115 76 -171 134 -171
179 0 44 28 62 117 75 231 33 465 -110 658 -402 40 -59 106 -141 155 -189 143
-144 307 -210 520 -210 117 0 233 20 346 61 81 30 84 32 90 67 25 152 91 308
173 409 27 33 47 64 44 67 -4 3 -19 6 -33 6 -47 0 -269 40 -390 70 -677 168
-1075 549 -1229 1172 -54 220 -66 325 -65 613 0 229 3 271 21 355 60 264 152
452 335 682 l28 35 -20 58 c-53 155 -69 422 -37 615 18 106 58 251 85 308 l17
37 80 3 c204 8 528 -113 859 -321 l118 -74 92 23 c104 27 322 66 476 86 160
20 660 16 825 -6 146 -20 345 -57 451 -85 l71 -18 125 78 c238 148 443 244
622 291 102 26 296 37 313 17 6 -8 23 -50 37 -94 66 -196 92 -401 75 -590 -8
-99 -41 -260 -64 -316 -4 -11 10 -34 40 -70 152 -176 261 -404 317 -659 20
-93 22 -133 23 -350 0 -147 -5 -281 -13 -335 -66 -463 -201 -767 -456 -1020
-123 -123 -243 -208 -401 -285 -184 -90 -466 -171 -713 -206 -171 -24 -161
-16 -103 -81 97 -109 169 -295 191 -495 8 -69 11 -293 9 -683 -4 -632 -5 -609
53 -661 98 -90 250 -54 678 157 1121 554 1893 1608 2089 2849 32 201 44 360
44 595 0 303 -28 557 -92 843 -258 1142 -1029 2108 -2086 2613 -406 194 -847
315 -1300 358 -116 11 -423 20 -510 15z"/>
<path d="M1277 3450 c-726 -65 -1123 -474 -1241 -1280 -28 -187 -39 -461 -27
-663 21 -353 73 -579 187 -813 193 -397 532 -617 1044 -679 137 -17 431 -19
550 -5 216 27 427 90 605 180 l110 55 3 849 c1 619 -1 852 -9 862 -9 12 -112
14 -575 14 -547 0 -564 -1 -574 -19 -6 -12 -10 -122 -10 -288 0 -227 2 -272
16 -291 15 -22 19 -22 235 -22 l219 0 0 -329 c0 -273 -2 -330 -14 -334 -41
-16 -236 -29 -366 -24 -162 5 -264 30 -352 86 -247 157 -358 458 -358 969 0
307 32 495 115 671 95 199 233 313 450 373 72 20 103 22 325 22 264 0 356 -11
509 -59 86 -28 114 -31 129 -12 15 19 136 542 129 560 -14 38 -225 114 -392
142 -211 35 -529 51 -708 35z"/>
<path d="M5672 3318 c-9 -9 -12 -383 -12 -1619 0 -1448 2 -1609 16 -1623 13
-14 58 -16 333 -16 295 0 319 1 334 18 16 17 17 80 17 705 l0 687 475 0 475 0
0 -689 c0 -614 2 -691 16 -705 13 -14 58 -16 333 -16 295 0 319 1 334 18 16
17 17 144 17 1616 0 1082 -3 1604 -10 1617 -10 18 -25 19 -338 19 -242 0 -331
-3 -340 -12 -9 -9 -12 -158 -12 -610 l0 -598 -475 0 -475 0 0 591 c0 388 -4
597 -10 610 -10 18 -25 19 -338 19 -242 0 -331 -3 -340 -12z"/>
<path d="M10690 3311 c-7 -13 -10 -536 -10 -1619 0 -1536 1 -1600 18 -1615 16
-15 48 -17 245 -17 260 0 249 -4 262 100 4 30 9 58 12 62 2 5 30 -9 61 -31
198 -134 449 -200 717 -188 507 23 732 292 796 951 15 160 7 543 -15 661 -77
415 -271 649 -600 722 -97 22 -345 22 -444 -1 -99 -22 -210 -60 -282 -96 -33
-17 -62 -30 -65 -30 -3 0 -5 247 -5 548 0 413 -3 551 -12 560 -9 9 -98 12
-340 12 -313 0 -328 -1 -338 -19z m1206 -1555 c97 -45 159 -136 192 -279 12
-55 16 -125 17 -297 0 -313 -25 -437 -107 -526 -59 -64 -108 -79 -258 -79
-134 0 -219 19 -322 71 l-48 24 2 508 3 507 50 25 c97 48 191 69 310 69 95 1
117 -2 161 -23z"/>
<path d="M3120 3245 c-76 -22 -129 -55 -188 -120 -67 -73 -94 -145 -96 -250
-2 -173 93 -316 251 -375 86 -32 215 -26 298 14 155 77 244 248 215 415 -40
228 -265 376 -480 316z"/>
<path d="M4172 2918 c-9 -9 -12 -96 -12 -329 l0 -317 -176 -42 c-159 -38 -176
-44 -185 -67 -5 -13 -9 -111 -9 -216 0 -158 3 -197 16 -215 15 -21 21 -22 185
-22 l169 0 0 -497 c0 -621 8 -702 86 -861 75 -153 217 -264 399 -311 102 -27
290 -45 385 -36 98 9 263 40 297 57 l28 13 3 239 c2 172 -1 242 -9 253 -10 11
-34 13 -128 7 -184 -10 -285 24 -339 114 l-27 47 0 485 0 485 234 3 c152 1
239 6 248 13 19 17 19 541 0 558 -9 7 -96 12 -248 13 l-234 3 -3 310 c-2 232
-5 311 -15 317 -21 13 -651 10 -665 -4z"/>
<path d="M2875 2267 c-14 -21 -15 -146 -13 -1095 3 -1013 4 -1072 21 -1089 16
-16 46 -18 323 -21 264 -2 309 -1 330 13 l24 15 0 1088 c0 833 -3 1091 -12
1100 -9 9 -97 12 -335 12 l-323 0 -15 -23z"/>
<path d="M8330 2270 c-20 -20 -20 -33 -20 -772 0 -414 5 -798 10 -852 33 -342
186 -534 488 -613 132 -34 390 -43 532 -19 128 23 280 75 408 140 58 30 109
53 113 51 4 -3 10 -30 14 -60 10 -87 6 -85 241 -85 123 0 213 4 225 10 19 10
19 33 19 1100 0 976 -2 1090 -16 1104 -13 14 -57 16 -328 16 -234 0 -316 -3
-329 -12 -16 -12 -17 -75 -20 -807 l-2 -794 -68 -34 c-107 -54 -212 -76 -329
-71 -86 4 -103 8 -145 34 -33 20 -55 44 -72 79 l-26 49 -5 764 c-5 741 -6 764
-24 778 -16 11 -78 14 -333 14 -300 0 -314 -1 -333 -20z"/>
</g>
</svg>
