<?xml version="1.0" standalone="no"?>
<!DOCTYPE svg PUBLIC "-//W3C//DTD SVG 20010904//EN"
 "http://www.w3.org/TR/2001/REC-SVG-20010904/DTD/svg10.dtd">
<svg version="1.0" xmlns="http://www.w3.org/2000/svg"
 width="1920.000000pt" height="1080.000000pt" viewBox="0 0 1920.000000 1080.000000"
 preserveAspectRatio="xMidYMid meet">

<g transform="translate(0.000000,1080.000000) scale(0.100000,-0.100000)"
fill="#000000" stroke="none">
<path d="M0 5400 l0 -5400 9600 0 9600 0 0 5400 0 5400 -9600 0 -9600 0 0
-5400z m5664 2685 c82 -19 162 -52 222 -92 28 -18 56 -33 63 -33 6 0 11 -4 11
-10 0 -5 4 -10 10 -10 5 0 34 -16 64 -35 30 -19 58 -35 61 -35 3 0 29 -16 58
-35 28 -19 57 -35 64 -35 6 0 13 -4 15 -9 2 -4 23 -19 48 -32 42 -23 166 -96
248 -147 20 -12 44 -25 52 -29 8 -4 45 -26 83 -50 37 -24 69 -43 71 -43 2 0
97 -56 211 -125 113 -69 208 -125 210 -125 4 0 64 -35 170 -100 33 -20 111
-67 174 -105 207 -123 283 -209 361 -410 29 -75 31 -140 30 -1238 0 -739 -3
-1124 -10 -1137 -5 -10 -10 -29 -10 -42 0 -13 -4 -28 -8 -33 -4 -6 -14 -28
-21 -50 -16 -47 -83 -154 -131 -208 -18 -21 -61 -58 -94 -81 -54 -39 -293
-186 -301 -186 -2 0 -51 -29 -110 -65 -59 -36 -110 -65 -112 -65 -2 0 -36 -20
-74 -45 -38 -25 -72 -45 -74 -45 -3 0 -44 -24 -92 -53 -140 -86 -294 -177
-299 -177 -2 0 -28 -15 -57 -34 -29 -19 -69 -43 -88 -54 -64 -37 -304 -178
-398 -235 -52 -31 -97 -57 -102 -57 -4 0 -9 -4 -11 -8 -4 -11 -145 -77 -193
-91 -117 -33 -268 -33 -360 1 -61 22 -185 82 -185 90 0 4 -4 8 -9 8 -6 0 -52
25 -103 55 -98 59 -101 60 -185 113 -30 17 -55 32 -58 32 -2 0 -63 36 -136 80
-72 44 -134 80 -136 80 -3 0 -17 8 -31 19 -15 10 -47 30 -72 43 -25 14 -88 52
-140 84 -91 55 -163 97 -260 152 -25 14 -63 37 -85 52 -22 15 -47 30 -55 33
-8 4 -31 17 -52 30 -20 12 -86 51 -148 87 -193 113 -300 191 -358 260 -78 94
-82 99 -82 110 0 6 -6 21 -14 33 -8 12 -22 45 -31 72 -45 133 -45 123 -45
1240 0 1086 1 1113 38 1230 42 134 152 280 262 350 101 64 302 185 307 185 4
0 14 6 22 14 9 7 41 26 71 42 30 16 60 34 67 40 6 6 25 17 42 24 17 7 31 16
31 21 0 5 5 9 10 9 6 0 36 16 66 35 30 19 56 35 59 35 2 0 45 25 96 55 50 30
95 55 100 55 5 0 9 5 9 10 0 6 5 10 11 10 6 0 42 20 80 45 38 25 71 45 74 45
2 0 84 48 182 106 98 59 192 115 208 124 17 10 86 51 155 92 194 116 216 127
304 153 95 28 218 32 310 10z m7716 -1490 c178 -27 256 -55 395 -144 200 -126
334 -349 335 -554 0 -112 -27 -127 -233 -127 -202 0 -233 16 -252 130 -29 177
-173 292 -363 293 -222 1 -352 -95 -352 -261 0 -139 77 -202 369 -298 396
-131 523 -197 662 -341 103 -107 151 -203 170 -342 45 -321 -143 -585 -503
-705 -82 -27 -259 -56 -346 -56 -99 0 -278 31 -349 61 -13 5 -33 13 -45 17
-232 85 -421 275 -491 492 -23 70 -31 175 -17 209 20 48 62 58 245 54 196 -3
200 -5 231 -114 28 -99 54 -147 107 -196 89 -82 163 -107 322 -107 158 0 234
25 307 101 46 48 59 82 60 159 2 77 -30 137 -99 186 -49 34 -66 43 -138 73
-22 9 -48 21 -57 26 -10 5 -25 9 -33 9 -8 0 -23 4 -33 9 -9 6 -55 22 -102 36
-87 27 -98 31 -162 59 -20 9 -39 16 -43 16 -15 0 -145 67 -208 107 -37 24 -70
43 -72 43 -15 0 -132 123 -170 179 -65 96 -97 201 -99 326 0 34 15 128 26 160
95 278 331 449 693 503 90 14 140 13 245 -3z m-3835 -41 c128 -22 162 -33 279
-90 157 -77 276 -214 321 -369 65 -224 7 -433 -160 -582 l-55 -50 43 -30 c117
-85 203 -203 240 -333 16 -54 20 -248 7 -310 -31 -147 -126 -291 -256 -387
-67 -49 -173 -105 -237 -125 -167 -52 -236 -58 -680 -58 -425 0 -435 1 -469
44 -16 20 -18 94 -18 1129 0 959 2 1112 15 1137 8 15 20 30 27 33 7 3 202 6
433 6 337 1 438 -2 510 -15z m1947 -7 c11 -13 44 -92 73 -177 28 -85 54 -162
57 -170 3 -8 43 -130 89 -270 46 -140 86 -262 90 -270 4 -8 28 -80 53 -160 26
-80 51 -154 56 -165 4 -11 21 -60 36 -110 15 -49 31 -94 36 -99 4 -6 8 -18 8
-28 0 -10 4 -26 9 -36 5 -9 22 -57 37 -107 15 -49 31 -94 36 -99 4 -6 8 -18 8
-28 0 -10 4 -26 9 -36 5 -9 21 -55 36 -102 14 -47 30 -94 34 -105 30 -68 81
-249 81 -284 0 -36 -4 -44 -32 -61 -29 -18 -51 -20 -194 -20 -107 0 -169 4
-187 13 -34 16 -48 45 -92 192 -15 50 -31 98 -36 107 -5 10 -9 25 -9 33 0 8
-4 23 -9 33 -6 9 -19 49 -31 87 -11 39 -24 76 -28 83 -12 18 -635 18 -640 0
-2 -7 -7 -22 -12 -33 -5 -11 -37 -108 -71 -215 -74 -232 -92 -274 -125 -289
-15 -7 -87 -11 -186 -11 -151 0 -164 1 -195 23 -46 31 -44 67 17 245 28 81 69
201 91 267 22 66 44 129 49 140 5 11 18 49 29 85 36 116 219 652 225 658 3 3
6 14 6 24 0 10 4 26 9 36 6 9 17 42 26 72 9 30 20 64 25 75 5 11 30 83 55 160
26 77 51 148 56 157 5 10 9 25 9 33 0 8 4 23 9 33 5 9 26 69 47 132 44 139 53
159 78 188 19 21 26 22 183 22 159 0 165 -1 185 -23z m3265 -16 l23 -34 0
-431 0 -431 380 3 379 2 1 443 0 442 27 22 c27 22 37 23 201 23 170 0 173 0
197 -25 l25 -24 0 -1116 c0 -747 -3 -1123 -10 -1136 -22 -40 -60 -49 -220 -49
-152 0 -181 6 -207 39 -9 12 -12 134 -13 494 l0 477 -380 0 -380 0 0 -464 c0
-499 0 -504 -52 -533 -31 -17 -316 -18 -353 -1 -58 26 -55 -28 -55 1168 0 818
3 1107 12 1123 23 45 34 47 223 44 l179 -2 23 -34z m-4301 -2647 c76 -36 101
-178 47 -261 -41 -64 -101 -81 -156 -44 -51 33 -61 57 -61 151 -1 79 1 89 26
123 37 48 86 58 144 31z m724 -24 c39 -37 41 -89 5 -126 -14 -14 -25 -29 -25
-33 0 -5 13 -35 30 -66 33 -62 31 -77 -7 -72 -19 2 -33 18 -58 63 -26 46 -38
59 -56 59 -22 0 -24 -5 -29 -60 -4 -48 -9 -61 -24 -63 -10 -2 -23 1 -29 7 -12
12 -19 291 -8 309 8 13 44 18 113 14 47 -3 64 -9 88 -32z m1647 34 c40 -8 82
-45 85 -75 4 -36 -29 -37 -63 0 -39 43 -73 41 -98 -6 -14 -27 -15 -138 0 -164
14 -28 53 -41 85 -29 20 8 25 16 22 37 -2 16 -10 27 -21 29 -35 5 -47 13 -41
29 5 11 21 15 65 15 l59 0 0 -65 0 -66 -42 -19 c-50 -23 -86 -25 -125 -8 -57
26 -77 68 -77 163 0 64 3 77 28 109 38 50 66 62 123 50z m1736 -8 c41 -17 70
-49 65 -73 -6 -31 -38 -27 -67 7 -20 25 -33 31 -55 28 -16 -1 -34 -11 -40 -20
-17 -27 3 -51 58 -69 86 -29 127 -92 96 -149 -22 -42 -115 -64 -163 -39 -39
20 -67 52 -67 76 0 32 38 31 65 -2 29 -34 66 -41 96 -16 33 27 18 49 -51 77
-60 24 -110 73 -110 107 0 28 46 74 80 80 46 8 60 7 93 -7z m-5733 -16 c0 -21
-3 -22 -60 -24 l-35 -1 -5 -140 -5 -140 -25 0 -25 0 -5 140 -5 140 -50 0 c-44
0 -50 3 -53 23 -3 22 -3 22 132 22 129 0 136 -1 136 -20z m152 -42 l3 -63 50
0 50 0 3 63 c3 61 3 62 32 62 l30 0 1 -87 c2 -230 -3 -259 -39 -237 -12 8 -18
29 -22 75 l-5 64 -50 0 -50 0 -3 -73 c-3 -73 -3 -73 -30 -70 l-27 3 -3 163 -2
162 29 0 c30 0 30 0 33 -62z m518 42 c0 -22 -3 -23 -80 -21 -65 2 -85 -9 -86
-46 -1 -37 10 -43 79 -43 54 0 57 -1 57 -25 0 -23 -3 -24 -67 -27 l-68 -3 0
-40 0 -40 80 -5 c73 -5 80 -7 83 -27 4 -29 -19 -35 -133 -31 l-90 3 -3 163 -2
162 115 0 c108 0 115 -1 115 -20z m644 5 c13 -9 29 -29 36 -45 10 -25 9 -33
-10 -59 l-21 -31 20 -22 c29 -30 28 -88 -1 -115 -27 -25 -87 -43 -145 -43 -76
0 -73 -6 -73 171 l0 159 85 0 c61 0 93 -5 109 -15z m546 -89 c0 -146 19 -187
76 -165 27 9 34 45 34 170 l0 99 30 0 30 0 1 -107 c1 -60 0 -117 -1 -127 -5
-47 -62 -96 -110 -96 -36 0 -90 31 -105 61 -11 20 -15 63 -15 149 l0 120 30 0
30 0 0 -104z m737 8 l48 -97 3 97 3 96 29 0 29 0 3 -152 c2 -97 -1 -156 -8
-166 -22 -30 -51 -3 -101 94 l-48 95 -5 -98 c-5 -94 -6 -98 -29 -101 -13 -2
-28 2 -32 10 -5 7 -9 82 -9 166 l0 152 35 0 c34 0 36 -2 82 -96z m460 81 c8
-23 1 -26 -74 -29 -85 -3 -92 -7 -84 -48 7 -33 8 -33 68 -36 60 -3 80 -15 64
-40 -3 -6 -36 -12 -71 -14 l-65 -3 0 -40 0 -40 80 -5 c77 -5 80 -6 80 -30 0
-25 -1 -25 -90 -28 -146 -5 -135 -19 -135 168 l0 160 110 0 c91 0 112 -3 117
-15z m609 -12 c6 -16 17 -44 24 -63 6 -19 16 -44 20 -55 27 -64 51 -168 41
-178 -18 -18 -61 8 -61 37 0 28 -16 36 -71 36 -29 0 -41 -5 -45 -17 -15 -46
-29 -63 -51 -63 -27 0 -41 24 -25 43 6 6 22 50 37 97 14 47 30 94 35 105 4 11
13 35 20 53 17 43 60 46 76 5z m726 -118 c26 -77 48 -148 48 -157 0 -43 -53
-32 -66 15 -9 30 -13 32 -60 35 l-51 3 -16 -41 c-13 -34 -20 -41 -39 -38 -20
3 -23 8 -20 38 1 19 7 39 12 44 6 6 10 19 10 31 0 12 4 25 8 31 5 5 21 49 37
97 28 87 29 88 58 85 30 -3 32 -7 79 -143z m368 125 c0 -12 -7 -20 -17 -21
-60 -4 -55 5 -57 -114 l-1 -110 32 -3 c22 -2 34 -10 39 -24 10 -31 -12 -38
-111 -36 l-90 3 -3 28 c-3 25 -1 27 32 27 l36 0 0 110 c0 98 -2 110 -17 111
-10 1 -25 2 -33 3 -8 0 -16 11 -18 24 -3 22 -2 22 102 22 99 0 106 -1 106 -20z
m232 -80 l47 -95 1 98 0 98 33 -3 32 -3 1 -152 c1 -117 -1 -155 -12 -164 -29
-24 -49 -4 -101 101 l-52 105 -3 -105 c-3 -105 -3 -105 -28 -105 l-25 0 -3
163 -3 163 33 -3 c31 -3 36 -9 80 -98z m975 60 c1 -19 2 -48 2 -63 1 -27 3
-28 49 -25 l47 3 3 63 c3 62 3 62 33 62 l29 0 -2 -162 c-3 -160 -3 -163 -25
-166 -25 -4 -31 12 -35 93 l-3 50 -49 0 -48 0 -2 -64 c-1 -67 -16 -91 -50 -78
-14 6 -16 28 -16 167 l0 161 33 -3 c29 -3 32 -6 34 -38z m506 25 c9 -22 -12
-30 -88 -30 l-70 0 0 -40 0 -40 68 -3 c64 -3 67 -4 67 -27 0 -24 -3 -25 -57
-25 -73 0 -85 -8 -81 -51 l3 -34 77 -3 c78 -3 95 -13 82 -47 -5 -12 -25 -15
-93 -15 -142 0 -131 -14 -131 171 l0 159 109 0 c86 0 110 -3 114 -15z m185
-122 l3 -132 77 -3 c75 -3 77 -4 77 -28 0 -25 -1 -25 -99 -28 -64 -2 -103 1
-112 9 -11 9 -14 45 -14 159 0 80 3 150 7 154 4 4 19 6 33 4 l25 -3 3 -132z
m344 5 l3 -133 75 -5 c72 -5 75 -6 75 -30 0 -25 -1 -25 -100 -28 -85 -2 -102
0 -112 15 -14 18 -19 293 -6 306 3 4 19 7 34 7 l28 0 3 -132z m-3639 -27 c20
-1 27 -6 27 -20 0 -26 -23 -32 -109 -30 -46 1 -75 7 -82 15 -21 26 5 39 73 37
34 -1 75 -2 91 -2z"/>
<path d="M5405 7958 c-16 -6 -48 -17 -70 -24 -22 -8 -80 -38 -130 -67 -49 -30
-214 -127 -365 -218 -151 -90 -284 -169 -295 -175 -72 -41 -156 -90 -260 -153
-126 -77 -144 -88 -240 -143 -33 -19 -79 -46 -102 -61 -24 -15 -45 -27 -48
-27 -4 0 -33 -18 -65 -40 -32 -22 -61 -40 -64 -40 -6 0 -132 -75 -214 -127
-93 -60 -177 -156 -214 -248 -44 -108 -43 -65 -43 -1240 l0 -1120 23 -64 c38
-109 107 -201 216 -288 8 -7 37 -25 63 -39 26 -15 60 -35 75 -45 14 -11 28
-19 31 -19 2 0 45 -25 96 -55 50 -31 106 -64 124 -74 17 -10 113 -67 212 -126
99 -59 194 -115 210 -125 17 -9 75 -44 130 -77 169 -102 189 -114 218 -126 15
-6 27 -15 27 -19 0 -4 7 -8 15 -8 8 0 15 -4 15 -10 0 -5 4 -10 9 -10 9 0 117
-62 136 -78 6 -4 17 -11 25 -15 8 -4 33 -18 55 -31 22 -14 51 -31 65 -39 49
-27 96 -55 173 -102 125 -75 220 -101 357 -96 l34 1 -41 26 c-24 16 -50 45
-64 73 l-24 46 -3 1095 c-3 1170 -4 1127 44 1225 47 96 185 223 304 282 8 4
45 26 82 50 99 64 390 243 395 243 2 0 9 5 16 10 16 14 278 178 297 187 8 3
49 28 90 53 41 26 143 89 225 140 83 51 166 102 185 115 82 52 297 183 351
213 83 46 189 40 250 -15 22 -20 39 -31 39 -26 0 5 -11 37 -24 72 -50 127
-148 231 -292 311 -28 15 -69 39 -92 54 -23 14 -44 26 -46 26 -3 0 -36 20 -73
43 -37 24 -93 57 -123 74 -30 16 -108 62 -173 101 -65 40 -123 72 -128 72 -5
0 -9 5 -9 10 0 6 -4 10 -9 10 -9 0 -49 22 -179 102 -34 21 -77 47 -95 57 -17
10 -77 45 -132 78 -55 33 -125 73 -155 90 -30 16 -88 51 -128 76 -40 26 -74
47 -77 47 -2 0 -29 16 -59 35 -30 19 -58 35 -61 35 -4 0 -25 13 -48 29 -49 33
-122 67 -186 87 -53 16 -211 17 -256 2z"/>
<path d="M6165 5093 c-22 -14 -43 -31 -47 -37 -4 -6 -8 -47 -8 -92 0 -79 -1
-81 -36 -115 -52 -49 -107 -135 -133 -204 -28 -74 -38 -185 -21 -244 23 -85
78 -117 220 -128 94 -7 125 -22 140 -68 42 -128 -102 -278 -270 -279 l-65 -1
-21 -85 c-12 -47 -20 -88 -18 -92 10 -16 85 -19 134 -4 29 9 56 13 61 10 5 -3
9 -36 9 -74 0 -38 5 -72 10 -75 12 -7 89 33 107 55 7 9 12 47 13 93 l0 79 55
61 c53 60 108 158 135 242 18 57 16 205 -4 243 -40 77 -85 101 -205 109 -47 3
-98 12 -113 20 -52 26 -52 102 0 185 33 53 126 98 203 98 56 0 59 1 64 28 3
15 10 43 15 62 10 35 13 64 11 88 -1 13 -43 13 -141 0 -20 -2 -25 1 -22 17 5
41 -10 135 -22 135 -6 0 -29 -12 -51 -27z"/>
<path d="M7090 4160 c0 -5 -7 -10 -15 -10 -8 0 -15 -5 -15 -10 0 -7 7 -7 20 0
11 6 25 8 30 5 6 -3 10 1 10 9 0 9 -7 16 -15 16 -8 0 -15 -4 -15 -10z"/>
<path d="M6975 4080 c3 -5 11 -10 16 -10 6 0 7 5 4 10 -3 6 -11 10 -16 10 -6
0 -7 -4 -4 -10z"/>
<path d="M7075 4050 c-3 -5 -2 -10 4 -10 5 0 13 5 16 10 3 6 2 10 -4 10 -5 0
-13 -4 -16 -10z"/>
<path d="M6860 4016 c0 -2 7 -7 16 -10 8 -3 12 -2 9 4 -6 10 -25 14 -25 6z"/>
<path d="M6995 4000 c-3 -5 -2 -10 4 -10 5 0 13 5 16 10 3 6 2 10 -4 10 -5 0
-13 -4 -16 -10z"/>
<path d="M6813 3990 c-13 -5 -23 -12 -23 -15 0 -9 16 -5 36 10 22 16 19 18
-13 5z"/>
<path d="M6730 3940 c-14 -11 -20 -20 -14 -20 6 0 19 9 29 20 23 25 17 25 -15
0z"/>
<path d="M6688 3908 c-2 -7 -1 -26 3 -43 6 -28 7 -26 8 13 1 42 -3 53 -11 30z"/>
<path d="M6690 3814 c0 -8 5 -12 10 -9 6 3 10 10 10 16 0 5 -4 9 -10 9 -5 0
-10 -7 -10 -16z"/>
<path d="M9040 5904 l0 -266 193 4 c166 4 201 8 257 27 158 55 229 158 201
291 -33 154 -162 210 -483 210 l-168 0 0 -266z"/>
<path d="M9040 4936 l0 -306 199 0 c218 0 290 11 369 57 56 32 92 71 122 129
20 38 24 60 23 129 0 72 -4 89 -26 127 -49 80 -89 113 -172 143 -41 14 -94 19
-282 22 l-233 5 0 -306z"/>
<path d="M11250 5598 c-29 -89 -69 -214 -90 -275 -20 -62 -35 -115 -32 -118 3
-3 83 -5 179 -5 186 0 184 -1 164 52 -5 13 -14 41 -20 63 -7 22 -16 49 -21 60
-4 11 -20 61 -34 110 -15 50 -31 98 -36 107 -6 10 -10 27 -10 37 0 11 -4 23
-10 26 -5 3 -10 14 -10 24 0 10 -6 33 -13 51 -14 32 -14 31 -67 -132z"/>
<path d="M10370 3832 c-20 -16 -23 -28 -23 -88 0 -38 3 -79 7 -92 9 -26 40
-42 69 -34 39 10 63 135 35 184 -30 53 -51 60 -88 30z"/>
<path d="M11053 3843 c-20 -7 -17 -89 3 -97 18 -7 63 2 82 17 42 33 -31 102
-85 80z"/>
<path d="M10019 3839 c-6 -3 -9 -21 -7 -40 2 -27 8 -35 27 -37 56 -8 99 29 71
62 -12 15 -74 26 -91 15z"/>
<path d="M10014 3696 c-3 -8 -4 -27 -2 -43 3 -25 7 -28 48 -31 44 -3 70 13 70
44 0 38 -103 64 -116 30z"/>
<path d="M12445 3758 c-4 -18 -9 -41 -11 -50 -4 -14 1 -18 20 -18 33 0 36 8
23 58 -13 50 -23 53 -32 10z"/>
<path d="M13133 3768 c-27 -79 -27 -78 6 -78 35 0 36 6 18 68 l-13 42 -11 -32z"/>
</g>
</svg>
